<svg viewBox="0 0 400 400" xmlns="http://www.w3.org/2000/svg">
  <defs>
    <linearGradient id="megaphoneGrad" x1="0%" y1="0%" x2="100%" y2="100%">
      <stop offset="0%" style="stop-color:#3B82F6;stop-opacity:1" />
      <stop offset="100%" style="stop-color:#1D4ED8;stop-opacity:1" />
    </linearGradient>
    <linearGradient id="handleGrad" x1="0%" y1="0%" x2="0%" y2="100%">
      <stop offset="0%" style="stop-color:#60A5FA;stop-opacity:1" />
      <stop offset="100%" style="stop-color:#3B82F6;stop-opacity:1" />
    </linearGradient>
    <linearGradient id="soundGrad" x1="0%" y1="0%" x2="100%" y2="0%">
      <stop offset="0%" style="stop-color:#FBBF24;stop-opacity:1" />
      <stop offset="100%" style="stop-color:#F59E0B;stop-opacity:1" />
    </linearGradient>
    <filter id="shadow3d">
      <feGaussianBlur in="SourceAlpha" stdDeviation="10"/>
      <feOffset dx="0" dy="12" result="offsetblur"/>
      <feComponentTransfer>
        <feFuncA type="linear" slope="0.35"/>
      </feComponentTransfer>
      <feMerge>
        <feMergeNode/>
        <feMergeNode in="SourceGraphic"/>
      </feMerge>
    </filter>
    <radialGradient id="highlight">
      <stop offset="0%" style="stop-color:#ffffff;stop-opacity:0.4" />
      <stop offset="100%" style="stop-color:#ffffff;stop-opacity:0" />
    </radialGradient>
  </defs>
  
  <g transform="translate(200, 200)" filter="url(#shadow3d)">
    
    <g transform="rotate(-15)">
      
      <ellipse cx="8" cy="8" rx="95" ry="95" fill="#1E40AF" opacity="0.2"/>
      <ellipse cx="4" cy="4" rx="95" ry="95" fill="#2563EB" opacity="0.3"/>
      <ellipse cx="0" cy="0" rx="95" ry="95" fill="url(#megaphoneGrad)"/>
      <ellipse cx="-8" cy="-8" rx="80" ry="80" fill="url(#highlight)"/>
      
      <path d="M -50 -30 L 60 -50 L 85 -35 L 85 35 L 60 50 L -50 30 Z" 
            fill="#2563EB" opacity="0.4"/>
      <path d="M -50 -30 L 60 -50 L 80 -38 L 80 38 L 60 50 L -50 30 Z" 
            fill="url(#megaphoneGrad)"/>
      
      <ellipse cx="-50" cy="0" rx="32" ry="32" fill="#1E40AF" opacity="0.4"/>
      <ellipse cx="-50" cy="0" rx="28" ry="28" fill="#60A5FA"/>
      <ellipse cx="-50" cy="0" rx="20" ry="20" fill="#1E3A8A"/>
      
      <path d="M 80 -38 L 105 -48 Q 115 -50 120 -42 L 125 -25 Q 128 -15 120 -12 L 105 -5 L 80 0 Z" 
            fill="#3B82F6" opacity="0.6"/>
      <path d="M 80 -38 L 100 -45 Q 110 -48 115 -40 L 118 -25 Q 120 -18 112 -15 L 100 -8 L 80 0 Z" 
            fill="url(#megaphoneGrad)"/>
      
      <path d="M 80 0 L 105 5 Q 115 8 120 15 L 125 30 Q 128 40 118 42 L 100 48 L 80 38 Z" 
            fill="#3B82F6" opacity="0.6"/>
      <path d="M 80 0 L 100 8 Q 110 10 115 18 L 118 30 Q 120 37 112 40 L 100 45 L 80 38 Z" 
            fill="url(#megaphoneGrad)"/>
      
      <rect x="-85" y="-8" width="40" height="16" rx="8" fill="#1E40AF" opacity="0.4"/>
      <rect x="-85" y="-8" width="38" height="16" rx="8" fill="url(#handleGrad)"/>
      <ellipse cx="-85" cy="0" rx="8" ry="10" fill="#1E3A8A" opacity="0.6"/>
      
      <path d="M 75 -30 Q 78 -32 80 -30 L 80 -25 Q 78 -23 75 -25 Z" fill="#1E3A8A" opacity="0.3"/>
      <path d="M 75 30 Q 78 32 80 30 L 80 25 Q 78 23 75 25 Z" fill="#1E3A8A" opacity="0.3"/>
      
      <ellipse cx="60" cy="-35" rx="8" ry="6" fill="#93C5FD" opacity="0.5"/>
      <ellipse cx="60" cy="35" rx="8" ry="6" fill="#93C5FD" opacity="0.5"/>
      
      <path d="M 75 -15 L 78 -15 L 78 15 L 75 15 Z" fill="#1E3A8A" opacity="0.2"/>
      <path d="M 72 -10 L 75 -10 L 75 10 L 72 10 Z" fill="#1E3A8A" opacity="0.2"/>
    </g>
    
    <g transform="translate(120, -80)">
      <path d="M 0 0 Q 15 -5 25 5" fill="none" stroke="url(#soundGrad)" stroke-width="5" stroke-linecap="round" opacity="0.8">
        <animate attributeName="opacity" values="0.3;0.8;0.3" dur="1.5s" repeatCount="indefinite"/>
      </path>
      <path d="M 5 -15 Q 20 -22 35 -10" fill="none" stroke="url(#soundGrad)" stroke-width="5" stroke-linecap="round" opacity="0.6">
        <animate attributeName="opacity" values="0.2;0.6;0.2" dur="1.5s" begin="0.3s" repeatCount="indefinite"/>
      </path>
      <path d="M 10 -30 Q 28 -40 50 -22" fill="none" stroke="url(#soundGrad)" stroke-width="5" stroke-linecap="round" opacity="0.4">
        <animate attributeName="opacity" values="0.1;0.4;0.1" dur="1.5s" begin="0.6s" repeatCount="indefinite"/>
      </path>
    </g>
    
    <g transform="translate(120, 80)">
      <path d="M 0 0 Q 15 5 25 -5" fill="none" stroke="url(#soundGrad)" stroke-width="5" stroke-linecap="round" opacity="0.8">
        <animate attributeName="opacity" values="0.3;0.8;0.3" dur="1.5s" repeatCount="indefinite"/>
      </path>
      <path d="M 5 15 Q 20 22 35 10" fill="none" stroke="url(#soundGrad)" stroke-width="5" stroke-linecap="round" opacity="0.6">
        <animate attributeName="opacity" values="0.2;0.6;0.2" dur="1.5s" begin="0.3s" repeatCount="indefinite"/>
      </path>
      <path d="M 10 30 Q 28 40 50 22" fill="none" stroke="url(#soundGrad)" stroke-width="5" stroke-linecap="round" opacity="0.4">
        <animate attributeName="opacity" values="0.1;0.4;0.1" dur="1.5s" begin="0.6s" repeatCount="indefinite"/>
      </path>
    </g>
    
    <circle cx="120" cy="-25" r="6" fill="#FBBF24" opacity="0.7">
      <animate attributeName="r" values="4;8;4" dur="1.5s" repeatCount="indefinite"/>
      <animate attributeName="opacity" values="0.8;0.2;0.8" dur="1.5s" repeatCount="indefinite"/>
    </circle>
    <circle cx="130" cy="-50" r="5" fill="#F59E0B" opacity="0.6">
      <animate attributeName="r" values="3;7;3" dur="1.5s" begin="0.5s" repeatCount="indefinite"/>
      <animate attributeName="opacity" values="0.7;0.2;0.7" dur="1.5s" begin="0.5s" repeatCount="indefinite"/>
    </circle>
    
    <circle cx="120" cy="25" r="6" fill="#FBBF24" opacity="0.7">
      <animate attributeName="r" values="4;8;4" dur="1.5s" repeatCount="indefinite"/>
      <animate attributeName="opacity" values="0.8;0.2;0.8" dur="1.5s" repeatCount="indefinite"/>
    </circle>
    <circle cx="130" cy="50" r="5" fill="#F59E0B" opacity="0.6">
      <animate attributeName="r" values="3;7;3" dur="1.5s" begin="0.5s" repeatCount="indefinite"/>
      <animate attributeName="opacity" values="0.7;0.2;0.7" dur="1.5s" begin="0.5s" repeatCount="indefinite"/>
    </circle>
    
  </g>
  
</svg>